<svg height="1086" width="720" xmlns="http://www.w3.org/2000/svg">
<rect height="1086" fill="#555" width="720"></rect>
<text fill="#7f7" font-family="Courier New" font-size="12" xml:space="preserve">
<tspan x="10" y="26">└─┬ gulp-group-css-media-queries@1.2.0 </tspan>
<tspan x="10" y="42">  ├─┬ group-css-media-queries@1.4.1 </tspan>
<tspan x="10" y="58">  │ ├─┬ css-parse@2.0.0 </tspan>
<tspan x="10" y="74">  │ │ └─┬ css@2.2.1 </tspan>
<tspan x="10" y="90">  │ │   ├─┬ source-map@0.1.43 </tspan>
<tspan x="10" y="106">  │ │   │ └── amdefine@1.0.1 </tspan>
<tspan x="10" y="122">  │ │   ├─┬ source-map-resolve@0.3.1 </tspan>
<tspan x="10" y="138">  │ │   │ ├── atob@1.1.3 </tspan>
<tspan x="10" y="154">  │ │   │ ├── resolve-url@0.2.1 </tspan>
<tspan x="10" y="170">  │ │   │ └── source-map-url@0.3.0 </tspan>
<tspan x="10" y="186">  │ │   └── urix@0.1.0 </tspan>
<tspan x="10" y="202">  │ └── css-stringify@2.0.0 </tspan>
<tspan x="10" y="218">  ├─┬ gulp-util@3.0.8 </tspan>
<tspan x="10" y="234">  │ ├── array-differ@1.0.0 </tspan>
<tspan x="10" y="250">  │ ├── array-uniq@1.0.3 </tspan>
<tspan x="10" y="266">  │ ├── beeper@1.1.1 </tspan>
<tspan x="10" y="282">  │ ├─┬ chalk@1.1.3 </tspan>
<tspan x="10" y="298">  │ │ ├── ansi-styles@2.2.1 </tspan>
<tspan x="10" y="314">  │ │ ├── escape-string-regexp@1.0.5 </tspan>
<tspan x="10" y="330">  │ │ ├─┬ has-ansi@2.0.0 </tspan>
<tspan x="10" y="346">  │ │ │ └── ansi-regex@2.1.1 </tspan>
<tspan x="10" y="362">  │ │ ├── strip-ansi@3.0.1 </tspan>
<tspan x="10" y="378">  │ │ └── supports-color@2.0.0 </tspan>
<tspan x="10" y="394">  │ ├── dateformat@2.0.0 </tspan>
<tspan x="10" y="410">  │ ├─┬ fancy-log@1.3.0 </tspan>
<tspan x="10" y="426">  │ │ └── time-stamp@1.0.1 </tspan>
<tspan x="10" y="442">  │ ├─┬ gulplog@1.0.0 </tspan>
<tspan x="10" y="458">  │ │ └── glogg@1.0.0 </tspan>
<tspan x="10" y="474">  │ ├─┬ has-gulplog@0.1.0 </tspan>
<tspan x="10" y="490">  │ │ └── sparkles@1.0.0 </tspan>
<tspan x="10" y="506">  │ ├── lodash._reescape@3.0.0 </tspan>
<tspan x="10" y="522">  │ ├── lodash._reevaluate@3.0.0 </tspan>
<tspan x="10" y="538">  │ ├── lodash._reinterpolate@3.0.0 </tspan>
<tspan x="10" y="554">  │ ├─┬ lodash.template@3.6.2 </tspan>
<tspan x="10" y="570">  │ │ ├── lodash._basecopy@3.0.1 </tspan>
<tspan x="10" y="586">  │ │ ├── lodash._basetostring@3.0.1 </tspan>
<tspan x="10" y="602">  │ │ ├── lodash._basevalues@3.0.0 </tspan>
<tspan x="10" y="618">  │ │ ├── lodash._isiterateecall@3.0.9 </tspan>
<tspan x="10" y="634">  │ │ ├─┬ lodash.escape@3.2.0 </tspan>
<tspan x="10" y="650">  │ │ │ └── lodash._root@3.0.1 </tspan>
<tspan x="10" y="666">  │ │ ├─┬ lodash.keys@3.1.2 </tspan>
<tspan x="10" y="682">  │ │ │ ├── lodash._getnative@3.9.1 </tspan>
<tspan x="10" y="698">  │ │ │ ├── lodash.isarguments@3.1.0 </tspan>
<tspan x="10" y="714">  │ │ │ └── lodash.isarray@3.0.4 </tspan>
<tspan x="10" y="730">  │ │ ├── lodash.restparam@3.6.1 </tspan>
<tspan x="10" y="746">  │ │ └── lodash.templatesettings@3.1.1 </tspan>
<tspan x="10" y="762">  │ ├── minimist@1.2.0 </tspan>
<tspan x="10" y="778">  │ ├─┬ multipipe@0.1.2 </tspan>
<tspan x="10" y="794">  │ │ └─┬ duplexer2@0.0.2 </tspan>
<tspan x="10" y="810">  │ │   └─┬ readable-stream@1.1.14 </tspan>
<tspan x="10" y="826">  │ │     └── isarray@0.0.1 </tspan>
<tspan x="10" y="842">  │ ├── object-assign@3.0.0 </tspan>
<tspan x="10" y="858">  │ ├── replace-ext@0.0.1 </tspan>
<tspan x="10" y="874">  │ └─┬ vinyl@0.5.3 </tspan>
<tspan x="10" y="890">  │   ├── clone@1.0.2 </tspan>
<tspan x="10" y="906">  │   └── clone-stats@0.0.1 </tspan>
<tspan x="10" y="922">  └─┬ through2@2.0.3 </tspan>
<tspan x="10" y="938">    ├─┬ readable-stream@2.2.6 </tspan>
<tspan x="10" y="954">    │ ├── buffer-shims@1.0.0 </tspan>
<tspan x="10" y="970">    │ ├── core-util-is@1.0.2 </tspan>
<tspan x="10" y="986">    │ ├── inherits@2.0.3 </tspan>
<tspan x="10" y="1002">    │ ├── isarray@1.0.0 </tspan>
<tspan x="10" y="1018">    │ ├── process-nextick-args@1.0.7 </tspan>
<tspan x="10" y="1034">    │ ├── string_decoder@0.10.31 </tspan>
<tspan x="10" y="1050">    │ └── util-deprecate@1.0.2 </tspan>
<tspan x="10" y="1066">    └── xtend@4.0.1</tspan>
</text>
</svg>
